<svg xmlns="http://www.w3.org/2000/svg" width="1283" height="883" viewBox="0 0 1283 883">
  <title>floortwo</title>
  <rect x="5" y="3" width="1275" height="877.5" fill="none" stroke="#000" stroke-width="5"/>
  <path d="M482.7,440.5H644.5V2.5h-242V359.4h80.2Z" transform="translate(0 0)" fill="none" stroke="#000" stroke-width="5"/>
  <path d="M1004.5,3.5v317h158V3.5Z" transform="translate(0 0)" fill="none" stroke="#000" stroke-width="5"/>
  <path d="M122.5,3.5v317h160V3.5Z" transform="translate(0 0)" fill="none" stroke="#000" stroke-width="5"/>
  <path d="M643.5,440.5V2.5h239V361.7h-82v78.8Z" transform="translate(0 0)" fill="none" stroke="#000" stroke-width="5"/>
  <path d="M1124,442.5v-121h39V4h117.5V442.5Z" transform="translate(0 0)" fill="none" stroke="#000" stroke-width="5"/>
  <path d="M163.5,440.5V319.9H123.4V3.5H2.5v437Z" transform="translate(0 0)" fill="none" stroke="#000" stroke-width="5"/>
  <path d="M1124,442.5V563.4h39V880.5h117.5v-438Z" transform="translate(0 0)" fill="none" stroke="#000" stroke-width="5"/>
  <path d="M163.5,440.5V561.9H123.4V880.5H2.5v-440Z" transform="translate(0 0)" fill="none" stroke="#000" stroke-width="5"/>
  <path d="M322.5,521h-159v40.9H123.4l1.1,318.6h198Z" transform="translate(0 0)" fill="none" stroke="#000" stroke-width="5"/>
  <path d="M843.5,524.5H1124v40.4l39,.3V880.5H843.5Z" transform="translate(0 0)" fill="none" stroke="#000" stroke-width="5"/>
  <path d="M564.5,880.5V521H442.9V880.5Z" transform="translate(0 0)" fill="none" stroke="#000" stroke-width="5"/>
  <path d="M442.5,880.5v-359h-120v359Z" transform="translate(0 0)" fill="none" stroke="#000" stroke-width="5"/>
  <path d="M843.5,880.5v-356h-120v356Z" transform="translate(0 0)" fill="none" stroke="#000" stroke-width="5"/>
</svg>
