<?xml version="1.0" encoding="utf-8"?>
<!-- Generator: Adobe Illustrator 23.1.0, SVG Export Plug-In . SVG Version: 6.00 Build 0)  -->
<svg version="1.1" id="Слой_1" xmlns="http://www.w3.org/2000/svg" xmlns:xlink="http://www.w3.org/1999/xlink" x="0px" y="0px"
	 viewBox="0 0 1283 883" style="enable-background:new 0 0 1283 883;" xml:space="preserve">
<style type="text/css">
	.st0{fill:none;stroke:#000000;stroke-width:5;stroke-miterlimit:4;}
	.st1{font-family:'Roboto-Bold';}
	.st2{font-size:36px;}
	.st3{font-family:'MyriadPro-Regular';}
	.st4{font-size:32px;}
</style>
<title>floortwo</title>
<rect x="5" y="3" class="st0" width="1275" height="877.5"/>
<path class="st0" d="M482.7,440.5h161.8V2.5h-242v356.9h80.2V440.5z"/>
<path class="st0" d="M1004.5,3.5v317h158V3.5H1004.5z"/>
<path class="st0" d="M122.5,3.5v317h160V3.5H122.5z"/>
<path class="st0" d="M643.5,440.5V2.5h239v359.2h-82v78.8H643.5z"/>
<path class="st0" d="M1124,442.5v-121h39V4h117.5v438.5H1124z"/>
<path class="st0" d="M163.5,440.5V319.9h-40.1V3.5H2.5v437H163.5z"/>
<path class="st0" d="M1124,442.5v120.9h39v317.1h117.5v-438H1124z"/>
<path class="st0" d="M163.5,440.5v121.4h-40.1v318.6H2.5v-440H163.5z"/>
<path class="st0" d="M322.5,521h-159v40.9h-40.1l1.1,318.6h198V521z"/>
<path class="st0" d="M843.5,521H1124v40.8l39,0.3v318.4H843.5V521z"/>
<path class="st0" d="M564.5,880.5V521H442.9v359.5H564.5z"/>
<path class="st0" d="M442.5,880.5v-359h-120v359H442.5z"/>
<path class="st0" d="M843.5,880.5V521h-120v359.5H843.5z"/>
<text transform="matrix(1 0 0 1 32.9799 242.8078)" class="st1 st2">205</text>
<text transform="matrix(1 0 0 1 494.5058 207.2681)" class="st1 st2">207</text>
<text transform="matrix(1 0 0 1 732.5336 207.2681)" class="st1 st2">208</text>
<text transform="matrix(1 0 0 1 1053.0908 185.0983)" class="st1 st2">209</text>
<text transform="matrix(1 0 0 1 170.6087 185.0983)" class="st1 st2">206</text>
<text transform="matrix(1 0 0 1 1188.4496 221.498)" class="st1 st2">210</text>
<text transform="matrix(1 0 0 1 1188.4496 661.4941)" class="st1 st2">211</text>
<text transform="matrix(1 0 0 1 974.8615 710.1837)" class="st1 st2">212</text>
<text transform="matrix(1 0 0 1 202.4984 710.1837)" class="st1 st2">203</text>
<text transform="matrix(1 0 0 1 32.9799 661.4941)" class="st1 st2">204</text>
<text transform="matrix(6.123234e-17 -1 1 6.123234e-17 402.4966 761.8308)" class="st3 st4">Уборная</text>
<text transform="matrix(6.123234e-17 -1 1 6.123234e-17 797.8921 761.8308)" class="st3 st4">Уборная</text>
<text transform="matrix(6.123234e-17 -1 1 6.123234e-17 516.8921 804.8308)" class="st3 st4">Тех. помещение</text>
</svg>
