<?xml version="1.0" encoding="utf-8"?>
<!-- Generator: Adobe Illustrator 23.1.0, SVG Export Plug-In . SVG Version: 6.00 Build 0)  -->
<svg version="1.1" id="Слой_1" xmlns="http://www.w3.org/2000/svg" xmlns:xlink="http://www.w3.org/1999/xlink" x="0px" y="0px"
	 viewBox="0 0 1281 880" style="enable-background:new 0 0 1281 880;" xml:space="preserve">
<style type="text/css">
	.st0{fill:none;stroke:#000000;stroke-width:5;}
	.st1{font-family:'MyriadPro-Regular';}
	.st2{font-size:32px;}
</style>
<rect x="3" y="2.5" class="st0" width="1278" height="877.5"/>
<rect x="363" y="2.5" class="st0" width="273.5" height="435"/>
<path class="st0" d="M918,2.5v435H636.5V2.5H918z"/>
<rect x="2.5" y="2.5" class="st0" width="235.5" height="436.5"/>
<rect x="1044.8" y="2.5" class="st0" width="236.2" height="437.5"/>
<path class="st0" d="M2.5,880H239V520.9l-1-81.9h-78.8H2.5V880z"/>
<path class="st0" d="M478,520.5V880H359.5V520.5H478z"/>
<path class="st0" d="M359.5,520.5V880H239V520.5H359.5z"/>
<path class="st0" d="M598,520.5V880H478V520.5H598z"/>
<path class="st0" d="M838,520.5V880H683V520.5H838z"/>
<path class="st0" d="M1044.8,520.5V880H838V520.5H1044.8z"/>
<path class="st0" d="M1044.8,880V521.1V440h110.6H1281v440H1044.8z"/>
<text transform="matrix(6.123234e-17 -1 1 6.123234e-17 545.1504 806.6472)" class="st1 st2">Тех. помещение</text>
<text transform="matrix(6.123234e-17 -1 1 6.123234e-17 428.8921 772.575)" class="st1 st2">Уборная</text>
<text transform="matrix(6.123234e-17 -1 1 6.123234e-17 768.8921 772.575)" class="st1 st2">Уборная</text>
<text transform="matrix(1 0 0 1 281 704.28)" class="st1 st2">402</text>
<text transform="matrix(1 0 0 1 98.8406 658.4995)" class="st1 st2">403</text>
<text transform="matrix(1 0 0 1 98.8403 221.25)" class="st1 st2">404</text>
<text transform="matrix(1 0 0 1 477.9998 221.2497)" class="st1 st2">405</text>
<text transform="matrix(1 0 0 1 760.4998 221.2495)" class="st1 st2">406</text>
<text transform="matrix(1 0 0 1 1143.3406 221.2502)" class="st1 st2">407</text>
<text transform="matrix(1 0 0 1 1143.3403 698.9995)" class="st1 st2">408</text>
<text transform="matrix(1 0 0 1 918 698.9998)" class="st1 st2">409</text>
</svg>
