<?xml version="1.0" encoding="utf-8"?>
<!-- Generator: Adobe Illustrator 23.1.0, SVG Export Plug-In . SVG Version: 6.00 Build 0)  -->
<svg version="1.1" id="Слой_1" xmlns="http://www.w3.org/2000/svg" xmlns:xlink="http://www.w3.org/1999/xlink" x="0px" y="0px"
	 width="1281" height="880" viewBox="0 0 1281 880" style="enable-background:new 0 0 1281 880;" xml:space="preserve">
<style type="text/css">
	.st0{fill:none;stroke:#000000;stroke-width:5;}
</style>
<rect x="3" y="2.5" class="st0" width="1275" height="875"/>
<rect x="363" y="2.5" class="st0" width="273.5" height="435"/>
<path class="st0" d="M918,2.5v435H636.5V2.5H918z"/>
<rect x="2.5" y="2.5" class="st0" width="235.5" height="436.5"/>
<rect x="1044.8" y="2.5" class="st0" width="236.2" height="437.5"/>
<path class="st0" d="M2.5,876h357V520.2H239V439H2.5V876z"/>
<path class="st0" d="M478,520.5v357H359.5v-357H478z"/>
<path class="st0" d="M359.5,520.5v357H239v-357H359.5z"/>
<path class="st0" d="M598,520.5v357H478v-357H598z"/>
<path class="st0" d="M838,520.5v357H683v-357H838z"/>
<path class="st0" d="M1044.8,520.5v357H838v-357H1044.8z"/>
<path class="st0" d="M838,877V520.5h207.4V440H1281v437H838z"/>
</svg>
